<?xml version="1.0" standalone="no"?>
<!DOCTYPE svg PUBLIC "-//W3C//DTD SVG 20010904//EN"
 "http://www.w3.org/TR/2001/REC-SVG-20010904/DTD/svg10.dtd">
<svg version="1.0" xmlns="http://www.w3.org/2000/svg"
 width="777.000000pt" height="777.000000pt" viewBox="0 0 777.000000 777.000000"
 preserveAspectRatio="xMidYMid meet">
<metadata>
Created by potrace 1.11, written by Peter Selinger 2001-2013
</metadata>
<g transform="translate(0.000000,777.000000) scale(0.100000,-0.100000)"
fill="#000000" stroke="none">
<path d="M3659 6010 c-3 -19 0 -243 4 -246 2 -3 41 -11 86 -19 108 -19 260
-60 314 -84 91 -42 137 -114 155 -247 4 -33 8 -933 7 -2000 -1 -1832 -2 -1942
-19 -1989 -42 -117 -93 -173 -189 -206 -51 -18 -41 -18 533 -18 l585 0 -62 21
c-71 24 -135 74 -162 127 -43 84 -45 115 -46 1014 l-1 857 217 0 217 0 95
-147 c223 -349 667 -1080 667 -1100 0 -3 8 -17 19 -31 10 -15 31 -49 45 -77
15 -27 37 -66 48 -85 32 -56 152 -270 185 -330 16 -30 54 -99 83 -152 l54 -98
525 1 526 0 -55 21 c-106 41 -249 149 -352 266 -46 53 -150 208 -275 412 -66
107 -254 413 -418 680 -165 267 -315 512 -336 545 -20 33 -68 111 -108 173
-39 62 -71 116 -71 120 0 4 46 25 102 46 557 217 854 576 915 1106 13 104 9
387 -6 480 -26 159 -92 328 -184 465 -50 76 -183 207 -265 262 -127 87 -303
160 -467 193 -86 18 -120 24 -216 36 -54 8 -2149 11 -2150 4z m1840 -294 c36
-4 67 -9 71 -11 4 -2 22 -7 41 -10 77 -14 217 -84 296 -149 56 -46 151 -172
193 -255 41 -83 81 -205 101 -316 15 -79 18 -382 6 -490 -50 -434 -298 -782
-641 -902 -124 -44 -194 -52 -456 -53 l-245 -1 0 1095 0 1095 30 3 c57 6 540
1 604 -6z"/>
<path d="M1948 4556 c-1 -2 -42 -6 -89 -9 -187 -12 -371 -86 -530 -213 -64
-51 -205 -197 -310 -321 -28 -35 -56 -63 -61 -63 -4 0 -8 112 -8 249 0 236 -1
250 -21 275 -19 24 -25 26 -72 21 -75 -7 -151 -13 -242 -20 -44 -3 -98 -8
-120 -10 -22 -3 -80 -7 -130 -10 -49 -3 -101 -8 -115 -10 -21 -3 -195 -16
-237 -18 -10 0 -13 -32 -13 -124 0 -130 -1 -128 50 -137 158 -29 259 -120 312
-281 l23 -70 0 -1220 0 -1220 -26 -55 c-14 -30 -41 -70 -59 -87 l-34 -33 444
0 444 0 -54 33 c-32 19 -67 51 -87 80 -66 97 -63 40 -63 1215 l0 1065 36 66
c56 100 92 150 155 212 122 121 316 224 462 245 50 7 161 7 198 -1 56 -12 137
-55 189 -102 54 -48 134 -162 152 -215 6 -18 14 -37 18 -43 10 -14 48 -178 56
-245 9 -76 11 -1988 2 -2076 -9 -87 -40 -159 -86 -201 l-36 -33 440 0 c420 1
438 2 408 18 -79 43 -125 106 -143 197 -6 32 -10 423 -11 1065 -1 558 -3 1040
-5 1070 -7 79 -16 156 -30 235 -27 158 -113 369 -198 484 -84 115 -196 198
-323 240 -74 24 -100 30 -189 37 -38 3 -75 7 -82 9 -6 2 -13 2 -15 1z"/>
</g>
</svg>
